<?xml version="1.0" encoding="utf-8"?>
<svg viewBox="197.85479736328125 758.5580444335938 88.68170166015625 15.8616943359375" width="88.68170166015625" height="15.8616943359375" xmlns="http://www.w3.org/2000/svg"><path fill="#CCCCCC" d="M341.7,1466.9c0,0,0,0.1,0,0.2c0,0.1,0,0.3-0.1,0.6c-0.1,0.5-0.3,1.3-0.9,2.1c-0.6,0.8-1.6,1.7-3.1,2.2&#10;&#9;&#9;&#9;c-0.4,0.1-0.8,0.2-1.2,0.3c-0.4,0-0.9,0-1.3,0c-0.9-0.1-1.9-0.5-2.8-1.1l-0.2-0.1l-0.1-0.1c0,0,0,0-0.1-0.1l0,0l-0.2-0.2l-0.2-0.2&#10;&#9;&#9;&#9;c-0.1-0.1-0.2-0.2-0.3-0.3c-0.1-0.1-0.2-0.2-0.3-0.4c-0.1-0.1-0.1-0.2-0.2-0.4c-0.1-0.2-0.3-0.5-0.4-0.8c-0.4-1.1-0.6-2.3-0.5-3.6&#10;&#9;&#9;&#9;l0-0.2l0-0.2c0-0.2,0.1-0.3,0.1-0.5c0.1-0.3,0.2-0.6,0.3-1c0.3-0.6,0.6-1.3,1.1-1.8c0.1-0.1,0.2-0.3,0.3-0.4&#10;&#9;&#9;&#9;c0.1-0.1,0.3-0.3,0.4-0.4c0.3-0.3,0.6-0.5,0.9-0.7c0.2-0.1,0.3-0.2,0.5-0.3l0.3-0.1l0.1-0.1l0.1,0c0,0,0.2-0.1,0.1-0.1&#10;&#9;&#9;&#9;c0.1-0.1,0.3-0.1,0.4-0.2c0.1-0.1,0.3-0.1,0.5-0.2c0.4-0.1,0.8-0.2,1.2-0.3c0.2,0,0.4-0.1,0.6-0.1c0.2,0,0.4,0,0.6,0l0.3,0l0.3,0&#10;&#9;&#9;&#9;c0.2,0,0.4,0,0.6,0c0.2,0,0.4,0.1,0.6,0.1l0.3,0.1l0.3,0.1c0.2,0.1,0.4,0.1,0.6,0.2c0.2,0.1,0.4,0.2,0.6,0.2&#10;&#9;&#9;&#9;c0.2,0.1,0.4,0.2,0.6,0.3c0.2,0.1,0.4,0.2,0.6,0.3c0.7,0.5,1.4,1,2,1.6c0.6,0.7,1.1,1.4,1.4,2.2l0.1,0.3l0.1,0.3l0.1,0.3l0.1,0.2&#10;&#9;&#9;&#9;l0,0.1c0-0.1,0,0.2,0,0.2l0.1,0.5l0.1,0.3c0,0,0,0.1,0,0.2l0,0.2c0,0.2,0.1,0.5,0.1,0.7c0,0.2,0,0.5,0,0.7c0,0.5,0,0.9-0.1,1.4&#10;&#9;&#9;&#9;c0,0.2-0.1,0.5-0.1,0.7c0,0.2-0.1,0.5-0.2,0.7c-0.1,0.2-0.1,0.4-0.2,0.7c-0.1,0.2-0.2,0.4-0.3,0.7c-0.4,0.9-0.9,1.7-1.4,2.4&#10;&#9;&#9;&#9;c-0.3,0.4-0.6,0.7-0.9,1.1c-0.3,0.3-0.7,0.7-1.1,0.9c-0.7,0.6-1.6,1.1-2.4,1.5l-0.7,0.3c0,0-0.1,0.1-0.1,0.1l-0.1,0l-0.1,0.1&#10;&#9;&#9;&#9;l-0.3,0.1c-0.3,0.1-0.9,0.3-1.3,0.4c-1.8,0.5-3.7,0.7-5.5,0.6c-1.8,0-3.6-0.3-5.4-0.6c-0.9-0.2-1.7-0.4-2.6-0.5&#10;&#9;&#9;&#9;c-0.9-0.2-1.7-0.4-2.6-0.6c-1.7-0.4-3.4-0.9-5.2-1.4c-3.5-1-7-2.1-10.6-3.2c-3.6-1.1-7.2-2.3-10.9-3.5c-3.7-1.2-7.4-2.3-11.2-3.3&#10;&#9;&#9;&#9;c-3.8-1.1-7.6-2.1-11.4-3.1c-1.9-0.5-3.9-0.9-5.8-1.4c-1-0.2-1.9-0.4-2.9-0.6c-1-0.2-1.9-0.4-2.9-0.6c-3.9-0.8-7.8-1.5-11.7-2.2&#10;&#9;&#9;&#9;c-1.9-0.4-3.9-0.7-5.8-1c-1.9-0.3-3.9-0.6-5.8-0.9c-3.8-0.5-7.7-1-11.4-1.3c-0.5,0-0.9-0.1-1.4-0.1c-0.5,0-0.9-0.1-1.4-0.1&#10;&#9;&#9;&#9;c-0.9-0.1-1.9-0.1-2.8-0.2c-1.9-0.1-3.7-0.2-5.6-0.2c-3.7-0.1-7.2-0.1-10.7,0.2c-3.5,0.2-6.8,0.7-9.9,1.5&#10;&#9;&#9;&#9;c-0.4,0.1-0.8,0.2-1.2,0.3c-0.1,0-0.2,0.1-0.3,0.1l-0.3,0.1l-0.5,0.2c-0.3,0.1-0.7,0.3-1,0.4c-0.3,0.1-0.7,0.3-1,0.5&#10;&#9;&#9;&#9;c-1.3,0.6-2.5,1.4-3.6,2.3c-2.1,1.8-3.6,4-4.1,6.4c0,0.2-0.1,0.3-0.1,0.5l-0.1,0.5l-0.1,0.5l0,0.1l0,0.1c0-0.1,0,0,0,0l0,0.3&#10;&#9;&#9;&#9;l0,0.3c0,0.1,0,0.1,0,0.2c0,0.1,0,0.2,0,0.4l0,0.4l0.1,0.4c0.2,1.1,0.5,2.2,1.1,3.1c0.3,0.5,0.6,0.9,1,1.2&#10;&#9;&#9;&#9;c0.2,0.2,0.4,0.4,0.6,0.5l0.3,0.2l0.1,0.1l0,0c0,0-0.1-0.1,0,0l0.2,0.1l0.2,0.1c0.1,0,0.1,0.1,0.2,0.1c0.1,0,0.2,0.1,0.3,0.1&#10;&#9;&#9;&#9;c0.1,0.1,0.2,0.1,0.3,0.1c0.1,0,0.2,0.1,0.3,0.1c0.5,0.2,0.9,0.3,1.4,0.3c0.9,0.1,1.9,0,2.6-0.4c0.4-0.2,0.7-0.4,1.1-0.6&#10;&#9;&#9;&#9;c0.3-0.3,0.6-0.6,0.9-0.9c0.2-0.2,0.2-0.4,0.3-0.5c0.1-0.2,0.2-0.4,0.3-0.6c0.2-0.4,0.3-0.8,0.3-1.2c0.1-0.8,0.1-1.5-0.2-2.1&#10;&#9;&#9;&#9;c0-0.1-0.1-0.2-0.1-0.2l-0.1-0.2c-0.1-0.2-0.2-0.3-0.3-0.4c-0.1-0.1-0.2-0.2-0.3-0.4c-0.1-0.1-0.1-0.1-0.2-0.2l-0.1-0.1l0,0l0,0&#10;&#9;&#9;&#9;c0,0-0.1,0,0,0c-0.2-0.1-0.3-0.2-0.5-0.3c-0.1-0.1-0.2-0.1-0.4-0.2c-0.1-0.1-0.3-0.1-0.4-0.2c-0.1,0-0.3-0.1-0.4-0.1&#10;&#9;&#9;&#9;c-1.2-0.3-2.2-0.1-3,0.3c-0.8,0.3-1.2,0.8-1.5,1.2c-0.2,0.2-0.2,0.3-0.3,0.4c-0.1,0.1-0.1,0.1-0.1,0.1l-0.5-0.2c0,0,0-0.1,0.1-0.2&#10;&#9;&#9;&#9;c0.1-0.1,0.1-0.3,0.2-0.5c0.2-0.5,0.7-1.1,1.6-1.7c0.4-0.3,1-0.5,1.6-0.7c0.6-0.2,1.3-0.3,2.1-0.2c0.2,0,0.4,0.1,0.6,0.1&#10;&#9;&#9;&#9;c0.2,0,0.4,0.1,0.6,0.1c0.2,0.1,0.4,0.2,0.6,0.2c0.2,0.1,0.3,0.2,0.5,0.3l0.1,0l0,0l0.1,0l0.1,0.1c0.1,0.1,0.2,0.1,0.3,0.2&#10;&#9;&#9;&#9;c0.2,0.2,0.4,0.3,0.6,0.5c0.2,0.2,0.4,0.4,0.5,0.6c0.1,0.1,0.1,0.2,0.2,0.3c0.1,0.1,0.1,0.2,0.2,0.3c0.5,0.9,0.7,2.1,0.7,3.2&#10;&#9;&#9;&#9;c0,0.6-0.1,1.2-0.3,1.7c-0.1,0.3-0.2,0.6-0.3,0.9c-0.1,0.3-0.3,0.6-0.4,0.8c-0.3,0.6-0.7,1.1-1.2,1.6c-0.5,0.5-1,0.9-1.7,1.3&#10;&#9;&#9;&#9;c-1.2,0.7-2.7,1-4.2,1c-0.7,0-1.5-0.1-2.2-0.3c-0.2,0-0.4-0.1-0.5-0.2c-0.2-0.1-0.4-0.1-0.6-0.2c-0.2-0.1-0.4-0.2-0.6-0.2&#10;&#9;&#9;&#9;c-0.1,0-0.2-0.1-0.2-0.1l-0.2-0.1l-0.2-0.1c0,0-0.1-0.1-0.1-0.1l-0.1,0l-0.1-0.1c-0.2-0.1-0.3-0.2-0.5-0.3&#10;&#9;&#9;&#9;c-0.3-0.2-0.7-0.5-0.9-0.7c-0.6-0.5-1.2-1.1-1.6-1.8c-1-1.3-1.6-2.9-2-4.6c0-0.2-0.1-0.4-0.1-0.6c0-0.2-0.1-0.4-0.1-0.6&#10;&#9;&#9;&#9;c0-0.2,0-0.5-0.1-0.7c0-0.1,0-0.2,0-0.3l0-0.3l0-0.3c0-0.1,0,0,0-0.1l0-0.1l0-0.2c0-0.2,0-0.4,0-0.6c0-0.2,0-0.4,0-0.6&#10;&#9;&#9;&#9;c0-0.2,0.1-0.4,0.1-0.6c0.3-1.7,0.9-3.5,1.8-5c0.9-1.6,2.1-3,3.4-4.3c1.4-1.3,2.9-2.3,4.5-3.2c0.8-0.4,1.7-0.8,2.6-1.2l0.7-0.3&#10;&#9;&#9;&#9;l0.3-0.1c0.1,0,0.2-0.1,0.3-0.1l0.6-0.2l0.3-0.1l0.2,0l0.1,0l0.2,0c1.8-0.5,3.5-0.8,5.4-1.1c1.8-0.3,3.7-0.5,5.5-0.6&#10;&#9;&#9;&#9;c3.7-0.2,7.5-0.2,11.3,0c7.5,0.4,15.4,1.3,23.1,2.7c7.8,1.4,15.6,3.5,23.2,5.8c7.7,2.3,15.2,4.7,22.8,6.9&#10;&#9;&#9;&#9;c3.8,1.1,7.5,2.1,11.2,3.1c1.9,0.5,3.7,0.9,5.6,1.3c1.8,0.4,3.7,0.8,5.5,1.2c3.6,0.8,7.2,1.5,10.7,2.1c1.8,0.3,3.5,0.6,5.2,1&#10;&#9;&#9;&#9;c0.9,0.2,1.7,0.3,2.6,0.5c0.8,0.2,1.7,0.3,2.5,0.4c3.2,0.5,6.3,0.7,8.9,0l0.4-0.1c0.1,0,0.1,0,0.2-0.1l0.3-0.1l0.5-0.2l0.4-0.2&#10;&#9;&#9;&#9;c0.6-0.3,1.1-0.6,1.6-0.9c0.3-0.2,0.5-0.4,0.7-0.6c0.2-0.2,0.4-0.4,0.6-0.6c0.4-0.4,0.7-0.9,0.9-1.4c0.3-0.5,0.4-1,0.5-1.5&#10;&#9;&#9;&#9;c0-0.3,0.1-0.5,0.1-0.8c0-0.1,0-0.3,0-0.4c0-0.1,0-0.2,0-0.3l0-0.1c0,0,0-0.1,0-0.1l-0.1-0.3l-0.1-0.5c0,0,0,0.2,0,0.1l0,0l0-0.1&#10;&#9;&#9;&#9;l-0.1-0.2l0-0.2l-0.1-0.2c-0.2-0.5-0.4-0.9-0.7-1.3c-0.3-0.4-0.7-0.7-1.1-1c-0.1-0.1-0.2-0.1-0.3-0.2c-0.1-0.1-0.2-0.1-0.3-0.2&#10;&#9;&#9;&#9;l-0.3-0.2l-0.3-0.1l-0.2-0.1l-0.2,0l-0.3-0.1l-0.3,0l-0.2,0l-0.2,0l-0.3,0c-0.1,0-0.2,0-0.3,0c-0.2,0-0.4,0.1-0.6,0.1&#10;&#9;&#9;&#9;c-0.1,0-0.2,0.1-0.4,0.1c-0.1,0-0.3,0.1-0.4,0.1c-0.1,0,0.1,0,0,0l0,0l-0.1,0l-0.1,0.1c-0.1,0-0.2,0.1-0.3,0.1&#10;&#9;&#9;&#9;c-0.2,0.1-0.4,0.2-0.5,0.3l-0.2,0.2l-0.2,0.2c-0.3,0.3-0.5,0.6-0.7,1c-0.1,0.2-0.2,0.4-0.2,0.6l-0.1,0.3l0,0.1l0,0.2&#10;&#9;&#9;&#9;c-0.2,0.8-0.1,1.6,0.1,2.3c0,0.1,0,0.2,0.1,0.3l0.1,0.3c0,0.1,0.1,0.2,0.1,0.3l0.1,0.2c0,0.1,0.1,0.1,0.1,0.2&#10;&#9;&#9;&#9;c0.1,0.1,0.1,0.2,0.2,0.3c0.1,0.1,0.1,0.2,0.2,0.3l0,0c-0.1-0.1,0,0,0,0l0,0l0.1,0.1c0.5,0.5,1,0.8,1.6,0.9&#10;&#9;&#9;&#9;c0.6,0.1,1.2,0.2,1.8,0.1c1.2-0.2,2.1-0.8,2.7-1.3c0.6-0.6,0.9-1.2,1.1-1.6c0.1-0.2,0.1-0.4,0.1-0.5c0-0.1,0-0.2,0-0.2&#10;&#9;&#9;&#9;L341.7,1466.9z" transform="matrix(0.5235042572021484, 0, 0, 0.5235042572021484, 105.29924774169916, 0.000004561539753922261)"/></svg>